<svg width="192" height="192" viewBox="0 0 192 192" fill="none" xmlns="http://www.w3.org/2000/svg">
<rect width="192" height="192" rx="24" fill="#000000"/>
<svg x="48" y="48" width="96" height="96" viewBox="0 0 24 24" fill="none" stroke="white" stroke-width="2">
<path d="M12 2C6.48 2 2 6.48 2 12S6.48 22 12 22S22 17.52 22 12S17.52 2 12 2ZM12 20C7.59 20 4 16.41 4 12S7.59 4 12 4S20 7.59 20 12S16.41 20 12 20Z"/>
<path d="M12 6V18M6 12H18M12 6C13.1 6 14 6.9 14 8S13.1 10 12 10S10 10 10 8S10.9 6 12 6Z"/>
</svg>
</svg>